<?xml version="1.0" encoding="UTF-8"?>
<svg xmlns="http://www.w3.org/2000/svg" xmlns:xlink="http://www.w3.org/1999/xlink" version="1.1" width="200px" height="200px" viewBox="0 0 200 200"><defs><rect id="r0" width="6" height="6" fill="#000000"/></defs><rect x="0" y="0" width="200" height="200" fill="#fefefe"/><use x="25" y="25" xlink:href="#r0"/><use x="31" y="25" xlink:href="#r0"/><use x="37" y="25" xlink:href="#r0"/><use x="43" y="25" xlink:href="#r0"/><use x="49" y="25" xlink:href="#r0"/><use x="55" y="25" xlink:href="#r0"/><use x="61" y="25" xlink:href="#r0"/><use x="73" y="25" xlink:href="#r0"/><use x="85" y="25" xlink:href="#r0"/><use x="97" y="25" xlink:href="#r0"/><use x="109" y="25" xlink:href="#r0"/><use x="115" y="25" xlink:href="#r0"/><use x="133" y="25" xlink:href="#r0"/><use x="139" y="25" xlink:href="#r0"/><use x="145" y="25" xlink:href="#r0"/><use x="151" y="25" xlink:href="#r0"/><use x="157" y="25" xlink:href="#r0"/><use x="163" y="25" xlink:href="#r0"/><use x="169" y="25" xlink:href="#r0"/><use x="25" y="31" xlink:href="#r0"/><use x="61" y="31" xlink:href="#r0"/><use x="79" y="31" xlink:href="#r0"/><use x="85" y="31" xlink:href="#r0"/><use x="91" y="31" xlink:href="#r0"/><use x="97" y="31" xlink:href="#r0"/><use x="103" y="31" xlink:href="#r0"/><use x="133" y="31" xlink:href="#r0"/><use x="169" y="31" xlink:href="#r0"/><use x="25" y="37" xlink:href="#r0"/><use x="37" y="37" xlink:href="#r0"/><use x="43" y="37" xlink:href="#r0"/><use x="49" y="37" xlink:href="#r0"/><use x="61" y="37" xlink:href="#r0"/><use x="73" y="37" xlink:href="#r0"/><use x="79" y="37" xlink:href="#r0"/><use x="85" y="37" xlink:href="#r0"/><use x="103" y="37" xlink:href="#r0"/><use x="115" y="37" xlink:href="#r0"/><use x="133" y="37" xlink:href="#r0"/><use x="145" y="37" xlink:href="#r0"/><use x="151" y="37" xlink:href="#r0"/><use x="157" y="37" xlink:href="#r0"/><use x="169" y="37" xlink:href="#r0"/><use x="25" y="43" xlink:href="#r0"/><use x="37" y="43" xlink:href="#r0"/><use x="43" y="43" xlink:href="#r0"/><use x="49" y="43" xlink:href="#r0"/><use x="61" y="43" xlink:href="#r0"/><use x="73" y="43" xlink:href="#r0"/><use x="79" y="43" xlink:href="#r0"/><use x="85" y="43" xlink:href="#r0"/><use x="97" y="43" xlink:href="#r0"/><use x="109" y="43" xlink:href="#r0"/><use x="115" y="43" xlink:href="#r0"/><use x="121" y="43" xlink:href="#r0"/><use x="133" y="43" xlink:href="#r0"/><use x="145" y="43" xlink:href="#r0"/><use x="151" y="43" xlink:href="#r0"/><use x="157" y="43" xlink:href="#r0"/><use x="169" y="43" xlink:href="#r0"/><use x="25" y="49" xlink:href="#r0"/><use x="37" y="49" xlink:href="#r0"/><use x="43" y="49" xlink:href="#r0"/><use x="49" y="49" xlink:href="#r0"/><use x="61" y="49" xlink:href="#r0"/><use x="73" y="49" xlink:href="#r0"/><use x="91" y="49" xlink:href="#r0"/><use x="97" y="49" xlink:href="#r0"/><use x="109" y="49" xlink:href="#r0"/><use x="115" y="49" xlink:href="#r0"/><use x="133" y="49" xlink:href="#r0"/><use x="145" y="49" xlink:href="#r0"/><use x="151" y="49" xlink:href="#r0"/><use x="157" y="49" xlink:href="#r0"/><use x="169" y="49" xlink:href="#r0"/><use x="25" y="55" xlink:href="#r0"/><use x="61" y="55" xlink:href="#r0"/><use x="85" y="55" xlink:href="#r0"/><use x="91" y="55" xlink:href="#r0"/><use x="109" y="55" xlink:href="#r0"/><use x="121" y="55" xlink:href="#r0"/><use x="133" y="55" xlink:href="#r0"/><use x="169" y="55" xlink:href="#r0"/><use x="25" y="61" xlink:href="#r0"/><use x="31" y="61" xlink:href="#r0"/><use x="37" y="61" xlink:href="#r0"/><use x="43" y="61" xlink:href="#r0"/><use x="49" y="61" xlink:href="#r0"/><use x="55" y="61" xlink:href="#r0"/><use x="61" y="61" xlink:href="#r0"/><use x="73" y="61" xlink:href="#r0"/><use x="85" y="61" xlink:href="#r0"/><use x="97" y="61" xlink:href="#r0"/><use x="109" y="61" xlink:href="#r0"/><use x="121" y="61" xlink:href="#r0"/><use x="133" y="61" xlink:href="#r0"/><use x="139" y="61" xlink:href="#r0"/><use x="145" y="61" xlink:href="#r0"/><use x="151" y="61" xlink:href="#r0"/><use x="157" y="61" xlink:href="#r0"/><use x="163" y="61" xlink:href="#r0"/><use x="169" y="61" xlink:href="#r0"/><use x="85" y="67" xlink:href="#r0"/><use x="97" y="67" xlink:href="#r0"/><use x="109" y="67" xlink:href="#r0"/><use x="115" y="67" xlink:href="#r0"/><use x="121" y="67" xlink:href="#r0"/><use x="25" y="73" xlink:href="#r0"/><use x="31" y="73" xlink:href="#r0"/><use x="37" y="73" xlink:href="#r0"/><use x="43" y="73" xlink:href="#r0"/><use x="61" y="73" xlink:href="#r0"/><use x="73" y="73" xlink:href="#r0"/><use x="85" y="73" xlink:href="#r0"/><use x="91" y="73" xlink:href="#r0"/><use x="97" y="73" xlink:href="#r0"/><use x="103" y="73" xlink:href="#r0"/><use x="109" y="73" xlink:href="#r0"/><use x="127" y="73" xlink:href="#r0"/><use x="145" y="73" xlink:href="#r0"/><use x="151" y="73" xlink:href="#r0"/><use x="157" y="73" xlink:href="#r0"/><use x="169" y="73" xlink:href="#r0"/><use x="49" y="79" xlink:href="#r0"/><use x="55" y="79" xlink:href="#r0"/><use x="73" y="79" xlink:href="#r0"/><use x="85" y="79" xlink:href="#r0"/><use x="97" y="79" xlink:href="#r0"/><use x="109" y="79" xlink:href="#r0"/><use x="115" y="79" xlink:href="#r0"/><use x="127" y="79" xlink:href="#r0"/><use x="133" y="79" xlink:href="#r0"/><use x="169" y="79" xlink:href="#r0"/><use x="25" y="85" xlink:href="#r0"/><use x="31" y="85" xlink:href="#r0"/><use x="37" y="85" xlink:href="#r0"/><use x="43" y="85" xlink:href="#r0"/><use x="49" y="85" xlink:href="#r0"/><use x="55" y="85" xlink:href="#r0"/><use x="61" y="85" xlink:href="#r0"/><use x="79" y="85" xlink:href="#r0"/><use x="85" y="85" xlink:href="#r0"/><use x="91" y="85" xlink:href="#r0"/><use x="97" y="85" xlink:href="#r0"/><use x="103" y="85" xlink:href="#r0"/><use x="157" y="85" xlink:href="#r0"/><use x="163" y="85" xlink:href="#r0"/><use x="169" y="85" xlink:href="#r0"/><use x="25" y="91" xlink:href="#r0"/><use x="31" y="91" xlink:href="#r0"/><use x="37" y="91" xlink:href="#r0"/><use x="49" y="91" xlink:href="#r0"/><use x="55" y="91" xlink:href="#r0"/><use x="67" y="91" xlink:href="#r0"/><use x="79" y="91" xlink:href="#r0"/><use x="85" y="91" xlink:href="#r0"/><use x="127" y="91" xlink:href="#r0"/><use x="133" y="91" xlink:href="#r0"/><use x="151" y="91" xlink:href="#r0"/><use x="157" y="91" xlink:href="#r0"/><use x="25" y="97" xlink:href="#r0"/><use x="43" y="97" xlink:href="#r0"/><use x="61" y="97" xlink:href="#r0"/><use x="79" y="97" xlink:href="#r0"/><use x="85" y="97" xlink:href="#r0"/><use x="97" y="97" xlink:href="#r0"/><use x="109" y="97" xlink:href="#r0"/><use x="115" y="97" xlink:href="#r0"/><use x="133" y="97" xlink:href="#r0"/><use x="163" y="97" xlink:href="#r0"/><use x="169" y="97" xlink:href="#r0"/><use x="43" y="103" xlink:href="#r0"/><use x="49" y="103" xlink:href="#r0"/><use x="67" y="103" xlink:href="#r0"/><use x="79" y="103" xlink:href="#r0"/><use x="91" y="103" xlink:href="#r0"/><use x="97" y="103" xlink:href="#r0"/><use x="121" y="103" xlink:href="#r0"/><use x="127" y="103" xlink:href="#r0"/><use x="133" y="103" xlink:href="#r0"/><use x="139" y="103" xlink:href="#r0"/><use x="151" y="103" xlink:href="#r0"/><use x="31" y="109" xlink:href="#r0"/><use x="37" y="109" xlink:href="#r0"/><use x="49" y="109" xlink:href="#r0"/><use x="61" y="109" xlink:href="#r0"/><use x="67" y="109" xlink:href="#r0"/><use x="73" y="109" xlink:href="#r0"/><use x="91" y="109" xlink:href="#r0"/><use x="109" y="109" xlink:href="#r0"/><use x="115" y="109" xlink:href="#r0"/><use x="121" y="109" xlink:href="#r0"/><use x="127" y="109" xlink:href="#r0"/><use x="139" y="109" xlink:href="#r0"/><use x="163" y="109" xlink:href="#r0"/><use x="25" y="115" xlink:href="#r0"/><use x="91" y="115" xlink:href="#r0"/><use x="103" y="115" xlink:href="#r0"/><use x="109" y="115" xlink:href="#r0"/><use x="121" y="115" xlink:href="#r0"/><use x="139" y="115" xlink:href="#r0"/><use x="157" y="115" xlink:href="#r0"/><use x="163" y="115" xlink:href="#r0"/><use x="169" y="115" xlink:href="#r0"/><use x="43" y="121" xlink:href="#r0"/><use x="55" y="121" xlink:href="#r0"/><use x="61" y="121" xlink:href="#r0"/><use x="67" y="121" xlink:href="#r0"/><use x="73" y="121" xlink:href="#r0"/><use x="85" y="121" xlink:href="#r0"/><use x="97" y="121" xlink:href="#r0"/><use x="109" y="121" xlink:href="#r0"/><use x="121" y="121" xlink:href="#r0"/><use x="127" y="121" xlink:href="#r0"/><use x="133" y="121" xlink:href="#r0"/><use x="139" y="121" xlink:href="#r0"/><use x="145" y="121" xlink:href="#r0"/><use x="163" y="121" xlink:href="#r0"/><use x="73" y="127" xlink:href="#r0"/><use x="79" y="127" xlink:href="#r0"/><use x="85" y="127" xlink:href="#r0"/><use x="103" y="127" xlink:href="#r0"/><use x="109" y="127" xlink:href="#r0"/><use x="115" y="127" xlink:href="#r0"/><use x="121" y="127" xlink:href="#r0"/><use x="145" y="127" xlink:href="#r0"/><use x="151" y="127" xlink:href="#r0"/><use x="157" y="127" xlink:href="#r0"/><use x="25" y="133" xlink:href="#r0"/><use x="31" y="133" xlink:href="#r0"/><use x="37" y="133" xlink:href="#r0"/><use x="43" y="133" xlink:href="#r0"/><use x="49" y="133" xlink:href="#r0"/><use x="55" y="133" xlink:href="#r0"/><use x="61" y="133" xlink:href="#r0"/><use x="79" y="133" xlink:href="#r0"/><use x="85" y="133" xlink:href="#r0"/><use x="103" y="133" xlink:href="#r0"/><use x="115" y="133" xlink:href="#r0"/><use x="121" y="133" xlink:href="#r0"/><use x="133" y="133" xlink:href="#r0"/><use x="145" y="133" xlink:href="#r0"/><use x="151" y="133" xlink:href="#r0"/><use x="157" y="133" xlink:href="#r0"/><use x="163" y="133" xlink:href="#r0"/><use x="169" y="133" xlink:href="#r0"/><use x="25" y="139" xlink:href="#r0"/><use x="61" y="139" xlink:href="#r0"/><use x="79" y="139" xlink:href="#r0"/><use x="85" y="139" xlink:href="#r0"/><use x="91" y="139" xlink:href="#r0"/><use x="109" y="139" xlink:href="#r0"/><use x="115" y="139" xlink:href="#r0"/><use x="121" y="139" xlink:href="#r0"/><use x="145" y="139" xlink:href="#r0"/><use x="151" y="139" xlink:href="#r0"/><use x="157" y="139" xlink:href="#r0"/><use x="163" y="139" xlink:href="#r0"/><use x="169" y="139" xlink:href="#r0"/><use x="25" y="145" xlink:href="#r0"/><use x="37" y="145" xlink:href="#r0"/><use x="43" y="145" xlink:href="#r0"/><use x="49" y="145" xlink:href="#r0"/><use x="61" y="145" xlink:href="#r0"/><use x="85" y="145" xlink:href="#r0"/><use x="103" y="145" xlink:href="#r0"/><use x="121" y="145" xlink:href="#r0"/><use x="127" y="145" xlink:href="#r0"/><use x="133" y="145" xlink:href="#r0"/><use x="139" y="145" xlink:href="#r0"/><use x="145" y="145" xlink:href="#r0"/><use x="157" y="145" xlink:href="#r0"/><use x="169" y="145" xlink:href="#r0"/><use x="25" y="151" xlink:href="#r0"/><use x="37" y="151" xlink:href="#r0"/><use x="43" y="151" xlink:href="#r0"/><use x="49" y="151" xlink:href="#r0"/><use x="61" y="151" xlink:href="#r0"/><use x="73" y="151" xlink:href="#r0"/><use x="85" y="151" xlink:href="#r0"/><use x="109" y="151" xlink:href="#r0"/><use x="115" y="151" xlink:href="#r0"/><use x="121" y="151" xlink:href="#r0"/><use x="133" y="151" xlink:href="#r0"/><use x="163" y="151" xlink:href="#r0"/><use x="169" y="151" xlink:href="#r0"/><use x="25" y="157" xlink:href="#r0"/><use x="37" y="157" xlink:href="#r0"/><use x="43" y="157" xlink:href="#r0"/><use x="49" y="157" xlink:href="#r0"/><use x="61" y="157" xlink:href="#r0"/><use x="73" y="157" xlink:href="#r0"/><use x="85" y="157" xlink:href="#r0"/><use x="109" y="157" xlink:href="#r0"/><use x="115" y="157" xlink:href="#r0"/><use x="139" y="157" xlink:href="#r0"/><use x="157" y="157" xlink:href="#r0"/><use x="163" y="157" xlink:href="#r0"/><use x="25" y="163" xlink:href="#r0"/><use x="61" y="163" xlink:href="#r0"/><use x="73" y="163" xlink:href="#r0"/><use x="85" y="163" xlink:href="#r0"/><use x="91" y="163" xlink:href="#r0"/><use x="97" y="163" xlink:href="#r0"/><use x="103" y="163" xlink:href="#r0"/><use x="127" y="163" xlink:href="#r0"/><use x="139" y="163" xlink:href="#r0"/><use x="145" y="163" xlink:href="#r0"/><use x="151" y="163" xlink:href="#r0"/><use x="163" y="163" xlink:href="#r0"/><use x="169" y="163" xlink:href="#r0"/><use x="25" y="169" xlink:href="#r0"/><use x="31" y="169" xlink:href="#r0"/><use x="37" y="169" xlink:href="#r0"/><use x="43" y="169" xlink:href="#r0"/><use x="49" y="169" xlink:href="#r0"/><use x="55" y="169" xlink:href="#r0"/><use x="61" y="169" xlink:href="#r0"/><use x="73" y="169" xlink:href="#r0"/><use x="79" y="169" xlink:href="#r0"/><use x="91" y="169" xlink:href="#r0"/><use x="97" y="169" xlink:href="#r0"/><use x="127" y="169" xlink:href="#r0"/><use x="157" y="169" xlink:href="#r0"/><use x="163" y="169" xlink:href="#r0"/><use x="169" y="169" xlink:href="#r0"/></svg>
